name Walk1.mot
datacolumns 19
datarows 17
range 2.55800000 2.57400000
endheader

                time	   L_ground_force_vx	   L_ground_force_vy	   L_ground_force_vz	   L_ground_force_px	   L_ground_force_py	   L_ground_force_pz	   R_ground_force_vx	   R_ground_force_vy	   R_ground_force_vz	   R_ground_force_px	   R_ground_force_py	   R_ground_force_pz	   L_ground_torque_x	   L_ground_torque_y	   L_ground_torque_z	   R_ground_torque_x	   R_ground_torque_y	   R_ground_torque_z	
          2.55800000	          0.00000000	          0.00000000	         -0.00000000	         -0.00000000	          0.00000000	         -0.00000000	         -0.27871355	          1.66150620	          0.65809731	          0.05886397	          0.00000000	          0.02433031	          0.00000000	          0.00000000	          0.00000000	          0.00000000	         -0.05312681	          0.00000000	
          2.55900000	          0.00000000	          0.00000000	         -0.00000000	         -0.00000000	          0.00000000	         -0.00000000	         -0.54735652	          0.70394520	          0.61351608	          0.05486692	          0.00000000	          0.02262899	          0.00000000	          0.00000000	          0.00000000	          0.00000000	         -0.04891010	          0.00000000	
          2.56000000	          0.00000000	          0.00000000	         -0.00000000	         -0.00000000	          0.00000000	         -0.00000000	         -0.79109002	         -0.17486002	          0.57040701	          0.05100238	          0.00000000	          0.02098681	          0.00000000	          0.00000000	          0.00000000	          0.00000000	         -0.04486710	          0.00000000	
          2.56100000	          0.00000000	          0.00000000	         -0.00000000	         -0.00000000	          0.00000000	         -0.00000000	         -1.01111093	         -0.97828481	          0.52880781	          0.04727370	          0.00000000	          0.01940495	          0.00000000	          0.00000000	          0.00000000	          0.00000000	         -0.04099831	          0.00000000	
          2.56200000	          0.00000000	          0.00000000	         -0.00000000	         -0.00000000	          0.00000000	         -0.00000000	         -1.20860400	         -1.70970236	          0.48874731	          0.04368341	          0.00000000	          0.01788427	          0.00000000	          0.00000000	          0.00000000	          0.00000000	         -0.03730353	          0.00000000	
          2.56300000	          0.00000000	          0.00000000	         -0.00000000	         -0.00000000	          0.00000000	         -0.00000000	         -1.38473835	         -2.37247118	          0.45024605	          0.04023331	          0.00000000	          0.01642530	          0.00000000	          0.00000000	          0.00000000	          0.00000000	         -0.03378194	          0.00000000	
          2.56400000	          0.00000000	          0.00000000	         -0.00000000	         -0.00000000	          0.00000000	         -0.00000000	         -1.54066442	         -2.96992361	          0.41331696	          0.03692453	          0.00000000	          0.01502830	          0.00000000	          0.00000000	          0.00000000	          0.00000000	         -0.03043212	          0.00000000	
          2.56500000	          0.00000000	          0.00000000	         -0.00000000	         -0.00000000	          0.00000000	         -0.00000000	         -1.67751119	         -3.50535550	          0.37796590	          0.03375753	          0.00000000	          0.01369330	          0.00000000	          0.00000000	          0.00000000	          0.00000000	         -0.02725211	          0.00000000	
          2.56600000	          0.00000000	          0.00000000	         -0.00000000	         -0.00000000	          0.00000000	         -0.00000000	         -1.79638376	         -3.98201682	          0.34419230	          0.03073225	          0.00000000	          0.01242006	          0.00000000	          0.00000000	          0.00000000	          0.00000000	         -0.02423950	          0.00000000	
          2.56700000	          0.00000000	          0.00000000	         -0.00000000	         -0.00000000	          0.00000000	         -0.00000000	         -1.89836117	         -4.40310329	          0.31198964	          0.02784806	          0.00000000	          0.01120815	          0.00000000	          0.00000000	          0.00000000	          0.00000000	         -0.02139145	          0.00000000	
          2.56800000	          0.00000000	          0.00000000	         -0.00000000	         -0.00000000	          0.00000000	         -0.00000000	         -1.98449457	         -4.77174894	          0.28134605	          0.02510387	          0.00000000	          0.01005692	          0.00000000	          0.00000000	          0.00000000	          0.00000000	         -0.01870471	          0.00000000	
          2.56900000	          0.00000000	          0.00000000	         -0.00000000	         -0.00000000	          0.00000000	         -0.00000000	         -2.05580560	         -5.09101946	          0.25224476	          0.02249813	          0.00000000	          0.00896558	          0.00000000	          0.00000000	          0.00000000	          0.00000000	         -0.01617573	          0.00000000	
          2.57000000	          0.00000000	          0.00000000	         -0.00000000	         -0.00000000	          0.00000000	         -0.00000000	         -2.11328507	         -5.36390650	          0.22466462	          0.02002894	          0.00000000	          0.00793314	          0.00000000	          0.00000000	          0.00000000	          0.00000000	         -0.01380065	          0.00000000	
          2.57100000	          0.00000000	          0.00000000	         -0.00000000	         -0.00000000	          0.00000000	         -0.00000000	         -2.15789178	         -5.59332259	          0.19858049	          0.01769399	          0.00000000	          0.00695851	          0.00000000	          0.00000000	          0.00000000	          0.00000000	         -0.01157536	          0.00000000	
          2.57200000	          0.00000000	          0.00000000	         -0.00000000	         -0.00000000	          0.00000000	         -0.00000000	         -2.19055166	         -5.78209690	          0.17396376	          0.01549072	          0.00000000	          0.00604046	          0.00000000	          0.00000000	          0.00000000	          0.00000000	         -0.00949553	          0.00000000	
          2.57300000	          0.00000000	          0.00000000	         -0.00000000	         -0.00000000	          0.00000000	         -0.00000000	         -2.21215709	         -5.93297164	          0.15078268	          0.01341624	          0.00000000	          0.00517763	          0.00000000	          0.00000000	          0.00000000	          0.00000000	         -0.00755665	          0.00000000	
          2.57400000	         -0.00000000	          0.00000000	         -0.00000000	         -0.00000000	          0.00000000	         -0.00000000	         -2.22356630	         -6.04859906	          0.12900278	          0.01146744	          0.00000000	          0.00436860	          0.00000000	          0.00000000	          0.00000000	          0.00000000	         -0.00575408	          0.00000000	
